<?xml version="1.0" encoding="UTF-8" standalone="no"?>
<svg width="106px" height="40px" viewBox="0 0 106 40" version="1.1" xmlns="http://www.w3.org/2000/svg" xmlns:xlink="http://www.w3.org/1999/xlink">
    <!-- Generator: Sketch 46.2 (44496) - http://www.bohemiancoding.com/sketch -->
    <title>Page 1</title>
    <desc>Created with Sketch.</desc>
    <defs>
        <polygon id="path-1" points="20.0814758 0.118235294 39.9762104 0.118235294 39.9762104 40 20.0814758 40 0.186741099 40 0.186741099 0.118235294 20.0814758 0.118235294"></polygon>
    </defs>
    <g id="Symbols" stroke="none" stroke-width="1" fill="none" fill-rule="evenodd">
        <g id="Header_model" transform="translate(-47.000000, -8.000000)">
            <g id="Page-1" transform="translate(47.000000, 8.000000)">
                <g id="Group-3" transform="translate(66.000000, 0.000000)">
                    <mask id="mask-2" fill="white">
                        <use xlink:href="#path-1"></use>
                    </mask>
                    <g id="Clip-2"></g>
                    <path d="M20.0815344,0.118235294 C9.09362247,0.118235294 0.186741099,9.04588235 0.186741099,20.0594118 C0.186741099,31.0723529 9.09362247,40 20.0815344,40 C31.0688595,40 39.9763278,31.0723529 39.9763278,20.0594118 C39.9763278,9.04588235 31.0688595,0.118235294 20.0815344,0.118235294" id="Fill-1" fill="#231F20" mask="url(#mask-2)"></path>
                </g>
                <path d="M102,21.0708731 C102,20.9525661 101.873991,20.9136858 101.747982,20.9725617 C101.474566,21.3658076 100.29769,22.7604977 98.4889848,22.7604977 C96.5340619,22.7604977 95.5878056,21.3852477 95.3565909,19.1651855 L101.537571,19.1651855 C101.873991,19.1651855 101.916192,19.0079982 101.916192,18.7719396 C101.916192,16.9056876 99.9820727,15 97.1433036,15 C93.9687087,15 91.4039498,17.160631 91.4039498,20.2060653 C91.4039498,23.1531882 93.611485,25 96.6600709,25 C100.234091,25 101.810986,21.8956898 102,21.0708731 L102,21.0708731 Z M90.825616,24.5845368 C90.3215799,24.5845368 89.7747483,24.2501666 89.7747483,23.3070429 L89.7747483,18.1209731 C89.7747483,16.0969784 88.4082638,15.1344146 86.5365545,15.1344146 C84.6238328,15.1344146 83.4463618,16.2736059 82.920928,16.8834703 C82.4793021,15.7042879 81.3648356,15.1344146 79.9561499,15.1344146 C78.1064327,15.1344146 76.8451539,16.3919129 76.4451347,16.902355 L76.4451347,15.4487892 C76.4451347,15.0366585 76.21392,15.0560986 75.9197009,15.1344146 L71.0630045,16.5879804 L71.0630045,16.804599 C71.3786214,16.804599 72.2196721,17.001222 72.2196721,18.2192846 L72.2196721,23.150411 C72.2196721,24.1129749 71.2734158,24.5645412 71,24.5845368 L71,24.82004 L77.4121944,24.82004 L77.4121944,24.5845368 C77.1179753,24.5645412 76.4451347,24.2501666 76.4451347,23.1892913 C76.4451347,23.1892913 76.4665325,19.7317263 76.4451347,17.6688514 C76.6763493,17.3350367 77.0341674,16.7846034 77.707008,16.7846034 C78.5058575,16.7846034 79.010488,17.3155965 79.010488,18.0815374 L79.010488,23.3270384 C79.010488,24.1524106 78.3798485,24.5845368 78.0642316,24.5845368 L78.0642316,24.82004 L84.2030103,24.82004 L84.2030103,24.5845368 C83.6775765,24.5845368 83.1313393,24.2501666 83.1313393,23.3070429 L83.1313393,18.1209731 C83.1313393,17.3939125 83.6145719,16.7846034 84.3290193,16.7846034 C85.1284632,16.7846034 85.653897,17.3155965 85.653897,18.0815374 L85.653897,23.3270384 C85.653897,24.1524106 85.0018598,24.5845368 84.6868373,24.5845368 L84.6868373,24.82004 L90.825616,24.82004 L90.825616,24.5845368 Z M97.6063273,18.7325039 L95.3351932,18.7325039 C95.3351932,18.5364363 95.3143898,18.3598089 95.3143898,18.1826261 C95.3143898,16.0803155 96.1976416,15.3732504 96.8282811,15.3732504 C97.6693318,15.3732504 98.0265555,16.5324372 98.0265555,17.7504999 C98.0265555,18.457565 97.9843543,18.7325039 97.6063273,18.7325039 L97.6063273,18.7325039 Z" id="Fill-4" fill="#FEFEFE"></path>
                <path d="M8.38209673,17.9999189 C6.47041153,17.1942125 4.4998498,16.638729 4.4998498,15.1390938 C4.4998498,14.4445976 5.17632923,13.5554835 6.61760288,13.5554835 C7.79393211,13.5554835 8.7942325,14.1943746 9.5001502,14.9722785 C10.2054671,15.7223798 10.6764794,16.6109265 10.8525083,17.1113723 C11.0291379,17.6946583 11.264644,17.5000405 11.264644,17.1386074 L11.264644,13.4720759 C11.264644,13.1668153 11.1763292,13.1668153 10.9702613,13.1668153 C10.7647942,13.1668153 10.3232202,13.3608657 9.7056173,13.3608657 C9.08801442,13.3608657 7.73505557,13 6.11775308,13 C3.08801442,13 0.0883148093,14.7776607 0.0883148093,17.8053011 C0.0883148093,20.1112102 1.67617903,21.2221772 3.41183539,21.9722785 C5.55842595,22.9442328 8,23.3334684 8,24.8053011 C8,25.6944152 7.2057675,26.5279241 5.73505557,26.5279241 C4.14659057,26.5279241 2.88194653,25.4163897 1.97056173,24.1386074 C1.17632923,23.0276404 0.676479423,21.8332658 0.470411535,21.1665721 C0.323220186,20.6944962 0,20.9163492 0,21.1943746 L0,26.5001216 C0,26.8053822 0.0288374887,26.8887898 0.206067888,26.8887898 C0.382096726,26.8887898 0.852508261,26.5551593 1.85280865,26.5551593 C3.7056173,26.5551593 3.91168519,27 6.26434365,27 C9.2057675,27 12,24.7774986 12,22.1663289 C12,19.8331847 10.2054671,18.8056254 8.38209673,17.9999189" id="Fill-6" fill="#231F20"></path>
                <path d="M39,13.5090234 L33.469666,13.5090234 L33.469666,13.9073059 C34.5242553,13.9073059 35.0087491,14.8753941 35.0087491,16.0993135 C35.0087491,16.8109891 34.8660797,17.551155 34.7239925,17.9779279 L33.4405497,21.564215 L31.4169727,15.8149921 C31.074566,14.8753941 31.4455066,13.9073059 32.3288926,13.9073059 L32.3288926,13.5090234 L22.418315,13.5090234 L22.3228139,13.5090234 L19.0786851,13.5090234 L19.0786851,9.35351209 C19.0786851,8.89766755 18.8509963,8.95464812 18.651259,9.12558982 L12.2084228,14.8184136 C11.8095306,15.1882058 12.0657533,15.4446184 12.2940244,15.4446184 L13.4342155,15.4446184 L13.4342155,23.7277322 C13.4342155,26.0621911 15.1730359,27.6559027 17.6531551,27.6559027 C20.76102,27.6559027 22.5569082,24.9801418 22.9558004,23.813203 C22.9843343,23.6422613 22.8987326,23.5288816 22.7566455,23.613771 C22.4998404,24.0411253 21.644406,24.9801418 20.6183506,24.9801418 C19.6493629,24.9801418 19.0786851,24.0696156 19.0786851,22.9305857 L19.0786851,15.4731087 L21.5063952,15.4731087 C21.6490646,15.4731087 21.734084,15.3591475 21.7911518,15.2736767 L22.4596601,13.915446 C23.3139298,13.9526578 24.0610519,14.3515218 24.574662,15.7295212 L28.9083196,27.3146007 L31.3599049,27.3146007 L30.2197139,30.5310956 C29.8487733,31.5555829 29.5354829,32.0963168 28.9083196,32.0963168 C28.4803112,32.0963168 28.3952918,29.7339491 26.0287258,29.7339491 C24.8600009,29.7339491 23.6056743,30.7875081 23.6056743,32.2672585 C23.6056743,33.804571 24.7458653,35 26.427618,35 C28.4232434,35 29.7631717,33.6906098 30.5615383,31.5555829 L35.2084864,18.9175258 C36.4342791,15.5870698 37.859809,13.9073059 39,13.9073059 L39,13.5090234 Z" id="Fill-8" fill="#231F20"></path>
                <path d="M47.4900222,24.5718154 L47.4900222,4.53511023 C47.4900222,3.92089425 47.1646845,3.95017109 46.7498488,4.06727841 L40.0888934,6.23197151 L40.0888934,6.55401666 C40.5327555,6.55401666 41.716791,6.81691066 41.716791,8.6595586 L41.716791,24.5132618 C41.716791,25.9466315 40.3852046,26.6194012 40,26.648678 L40,27 L49,27 L49,26.648678 C48.4073775,26.648678 47.4900222,26.1515694 47.4900222,24.5718154" id="Fill-10" fill="#231F20"></path>
                <path d="M54.1667342,17.774068 C54.1667342,14.6204503 55.3333063,13.5598138 56.1668153,13.5598138 C57.2777823,13.5598138 57.7504255,15.2982463 57.7504255,17.1257675 C57.7504255,18.1864039 57.6948205,18.5987399 57.1943746,18.5987399 L54.1945368,18.5987399 C54.1945368,18.3043862 54.1667342,18.0395281 54.1667342,17.774068 M62.6663695,21.9582246 C62.3055038,22.548136 60.7502634,24.6405153 58.3609467,24.6405153 C55.778147,24.6405153 54.5281673,22.5776315 54.2223393,19.2476424 L62.3889114,19.2476424 C62.8331847,19.2476424 62.8887898,19.0116778 62.8887898,18.657731 C62.8887898,15.8586621 60.3332253,13 56.5832861,13 C52.3890735,13 49,16.2415025 49,20.8091015 C49,25.2298246 51.9169976,28 55.9443949,28 C60.6668558,28 62.7497771,23.3433123 63,22.1057025 C63,21.929331 62.8331847,21.8703399 62.6663695,21.9582246" id="Fill-12" fill="#231F20"></path>
            </g>
        </g>
    </g>
</svg>